<svg version="1.1" xmlns="http://www.w3.org/2000/svg" xmlns:xlink="http://www.w3.org/1999/xlink" width="532" height="376" viewBox="0,0,532,376"><g transform="translate(31.5,2.5)"><g data-paper-data="{&quot;isPaintingLayer&quot;:true}" fill-rule="nonzero" stroke-linecap="butt" stroke-linejoin="miter" stroke-miterlimit="10" stroke-dasharray="" stroke-dashoffset="0" style="mix-blend-mode: normal"><path d="M-30.5,372.5v-374h530v374z" fill="#66ff87" stroke="#000000" stroke-width="2"/><path d="M29.98953,61c-0.09085,0.6111 -0.44038,1.27051 -1.37149,1.73607c-2.23607,1.11803 -3.35411,-1.11803 -3.35411,-1.11803l1.23607,-5.61803c8.63391,0 17.26782,0 25.90173,0c-2.82582,-4.01814 -5.58379,-7.90469 -8.07234,-12.25966c0,0 -1.24034,-2.17061 0.93027,-3.41096c2.17061,-1.24034 3.41096,0.93027 3.41096,0.93027c2.87322,5.02814 6.02376,9.90422 9.25057,14.74034c8.19294,0 16.38588,0 24.57882,0c1.18223,0 2.36446,-0.00025 3.5467,-0.00072c0.55944,-2.05893 1.13054,-4.11653 1.69073,-6.18057l1.29546,-4.77312c0.26963,-1.08966 1.25394,-1.89748 2.42692,-1.89748c1.37571,0 2.49188,1.1112 2.49996,2.48501l0.03361,4.89332c0.39611,1.79218 0.63038,3.62058 0.78948,5.46575c9.16266,-0.01081 18.32577,-0.0308 27.48899,-0.04691c2.96059,-3.31759 6.09315,-6.51053 9.42309,-9.62756c2.41549,-2.26105 4.83287,-4.52006 7.25223,-6.77696l3.16609,-2.12087c0,0 2.08013,-1.38675 3.46688,0.69338c1.38675,2.08013 -0.69338,3.46688 -0.69338,3.46688l-2.83391,1.87913c-2.31154,2.17186 -4.62541,4.34123 -6.94101,6.50877c-2.08611,1.95272 -4.07057,3.93942 -5.97234,5.96609c18.84816,-0.02749 37.69643,-0.0248 56.54184,0.12164c6.64824,0.05168 13.59798,-0.45613 20.21415,0.16639c5.01532,0.47189 10.18562,1.82904 15.05137,3.07918c1.75075,0.44982 3.5958,0.63309 5.2477,1.36702c6.39784,2.84253 12.10515,8.33741 13.73856,15.3626c0.42054,1.8087 0.05018,3.7136 0.0562,5.57053c0.00962,2.96626 0.31858,8.6003 -1.37431,11.23145c-2.24025,3.48186 -4.84896,3.89398 -8.16195,4.81663c-6.52835,1.81811 -13.07599,3.5724 -19.62128,5.32833c-9.46028,0.06155 -18.92197,0.02599 -28.38245,0.01921c-4.95709,-0.00355 -10.76544,0.14484 -15.60497,-1.0846c-8.68255,-2.20571 -14.73314,-8.26541 -20.14989,-14.91788c-1.17153,-1.43879 -2.58285,-2.73234 -3.43302,-4.38153c-2.11102,-4.09506 -2.59209,-10.27183 -3.23634,-14.75953c0,0 -0.35356,-2.47487 2.12132,-2.82843c2.47487,-0.35356 2.82843,2.12132 2.82843,2.12132c0.56089,3.94665 0.89661,9.636 2.76366,13.24047c0.20971,0.40484 5.94684,7.11453 6.02728,7.20977c3.64003,4.3098 8.74742,8.07775 14.38982,9.49082c6.0683,1.51973 13.10133,0.91026 19.2953,0.91165c7.57213,0.0017 15.14539,-0.03897 22.71728,0.02296c6.3161,-1.75478 12.63456,-3.5098 18.96928,-5.19638c1.88319,-0.50138 4.05508,-0.69784 5.2475,-2.65867c0.86831,-1.42786 0.59536,-7.39569 0.60435,-8.57434c0.01127,-1.47665 0.40812,-2.99113 0.0737,-4.42945c-1.27556,-5.4861 -5.93577,-9.72066 -10.8986,-11.92562c-2.88701,-1.28269 -6.10832,-1.62387 -9.19542,-2.2947c-9.75556,-2.11989 -19.39189,-1.81013 -29.32655,-1.88736c-20.32184,-0.15805 -40.64702,-0.14866 -60.9718,-0.11457c-4.92279,5.79413 -9.33073,11.93095 -13.62467,18.53701c-0.13732,0.21125 -5.54116,8.53279 -5.60346,8.59567c-1.22561,1.23708 -2.69512,3.4345 -4.35013,2.89284c-2.16078,-0.70718 -2.54723,-3.76847 -3.90265,-5.59381c-1.0406,-1.40138 -2.48877,-2.52568 -3.28134,-4.08084c-3.03897,-5.96301 -3.23151,-13.77233 -3.88144,-20.29501c-0.04748,0.00004 -0.09496,0.00008 -0.14244,0.00011c-0.80433,3.08835 -1.54912,6.19098 -2.15256,9.335c-0.94401,4.90888 -1.83846,9.83116 -2.83271,14.73009c-0.38018,1.87327 -0.12296,4.02397 -1.19071,5.60939c-1.30012,1.93046 -3.16853,4.45803 -5.49143,4.31247c-2.14902,-0.13466 -2.89904,-3.19347 -4.18711,-4.91896c-1.88114,-2.51996 -3.33334,-5.33334 -5,-8c-4.37427,-6.99885 -8.56536,-14.20146 -13.17097,-21.06499c-8.62317,0 -17.24634,0 -25.86951,0zM82.5,61c-7.0724,0 -14.1448,0 -21.2172,0c3.16763,4.69174 6.34177,9.38232 9.3372,14.175c2.4485,3.9176 5.71276,8.04991 7.65,12.23999c0.37086,0.80214 -0.14582,2.01195 0.5129,2.60106c0.43792,0.39164 0.39085,-1.11194 0.50857,-1.68753c0.28508,-1.39384 0.44568,-2.81048 0.69776,-4.21067c0.88562,-4.91931 1.88877,-9.8216 2.83271,-14.7301c0.54378,-2.82239 1.19626,-5.61211 1.90272,-8.38804c-0.74156,0.00019 -1.4831,0.00029 -2.22464,0.00029zM95.95804,70.04388c0.56526,3.03932 0.96786,6.21766 2.3959,8.9595c0.73353,1.40837 2.32566,2.24891 3.04204,3.66609c0.26712,0.52844 0.37271,1.1136 0.42414,1.7132c0.64166,-1.21447 1.55933,-2.28092 2.30871,-3.43736c1.81271,-2.79735 3.63325,-5.58963 5.44988,-8.38444c2.6505,-4.07769 5.45133,-7.92733 8.43332,-11.60798c-7.64003,0.0142 -15.27994,0.0297 -22.91954,0.0389c0.15405,3.04792 0.31536,6.09387 0.86554,9.0521z" fill="#ff6666" stroke="none" stroke-width="0.5"/><path d="M353.84504,87.39266c2.10734,1.34504 0.7623,3.45238 0.7623,3.45238l-2.02635,3.15435c-3.10632,7.6508 -9.43135,13.38958 -14.98263,19.45671c-2.99331,3.27147 -5.28925,7.32609 -11.08608,5.34051c-0.73425,-0.2515 -6.20575,-8.81905 -6.43997,-9.57686c-0.12564,-0.40651 -0.46433,-9.86428 -0.49397,-10.63475c-0.09065,-2.35685 -0.22883,-4.68212 -0.3177,-6.99344c-0.99483,1.94713 -2.02765,3.87389 -3.14704,5.75177c-1.07139,1.79734 -1.638,4.10233 -3.34579,5.31135c-1.25752,0.89025 -3.08173,0.50901 -4.61105,0.32165c-4.97652,-0.60968 -6.10854,-1.93456 -8.83033,-6.24117c-2.28881,-3.62151 -2.79771,-8.45824 -4.19024,-12.42126c-1.55235,-4.41784 -4.02735,-8.53441 -5.92169,-12.80073c-3.17697,-7.155 -6.23491,-14.82433 -8.13986,-22.40682c0,0 -0.60634,-2.42536 1.81902,-3.0317c2.42536,-0.60634 3.0317,1.81902 3.0317,1.81902c3.36552,13.53386 10.77636,25.66438 14.96159,38.86307c0.92829,2.92747 2.37624,8.57044 5.11859,10.56438c0.78814,0.57305 1.89064,0.47308 2.83769,0.70257c0.46187,0.11192 1.06479,0.66917 1.38895,0.32165c0.8522,-0.91361 0.94771,-2.31485 1.51064,-3.43022c2.0847,-4.1306 4.33908,-8.18798 6.42788,-12.32303c0.88134,-3.11123 1.72289,-6.23395 2.52965,-9.36535l1.23442,-4.79049c0.25883,-1.10482 1.25041,-1.92752 2.43415,-1.92752c1.38071,0 2.5,1.11929 2.5,2.5c0,0.18395 -0.01987,0.36328 -0.05758,0.53593l-0.96105,4.85439c-0.00338,0.96796 -1.76826,8.11229 -1.85798,9.29703c-0.48515,6.40565 0.58567,13.26507 0.77452,19.69308c0.04263,1.45103 -0.34612,2.96725 0.08254,4.35417c0.42865,1.38692 1.67629,2.37657 2.38867,3.64141c0.50435,0.89551 0.3307,2.35853 1.24971,2.81867c0.83668,0.41892 1.92823,-0.28896 2.67398,-0.85409c3.42136,-2.5927 6.49724,-7.46618 9.3699,-10.68189c3.49478,-3.91212 5.67449,-6.05514 7.60132,-10.95157l2.25974,-3.56088c0,0 1.34504,-2.10734 3.45238,-0.7623z" fill="#ff6666" stroke="none" stroke-width="0.5"/></g></g></svg>